<?xml version="1.0" encoding="iso-8859-1"?>
<!-- Generator: Adobe Illustrator 18.0.0, SVG Export Plug-In . SVG Version: 6.00 Build 0)  -->
<!DOCTYPE svg PUBLIC "-//W3C//DTD SVG 1.1//EN" "http://www.w3.org/Graphics/SVG/1.1/DTD/svg11.dtd">
<svg version="1.1" id="Capa_1" xmlns="http://www.w3.org/2000/svg" xmlns:xlink="http://www.w3.org/1999/xlink" x="0px" y="0px"
	 viewBox="0 0 484.836 484.836" style="enable-background:new 0 0 484.836 484.836;" xml:space="preserve">
<g>
	<path d="M223.083,93.939c0-20.54-16.71-37.25-37.25-37.25c-20.54,0-37.25,16.71-37.25,37.25c0,20.54,16.71,37.25,37.25,37.25
		C206.373,131.189,223.083,114.479,223.083,93.939z M185.833,122.689c-15.853,0-28.75-12.897-28.75-28.75
		c0-15.853,12.897-28.75,28.75-28.75c15.853,0,28.75,12.897,28.75,28.75C214.583,109.792,201.686,122.689,185.833,122.689z"/>
	<path d="M185.833,72.689c-11.717,0-21.25,9.532-21.25,21.25s9.533,21.25,21.25,21.25c11.717,0,21.25-9.532,21.25-21.25
		S197.55,72.689,185.833,72.689z M185.833,106.689c-7.03,0-12.75-5.72-12.75-12.75c0-7.03,5.72-12.75,12.75-12.75
		c7.03,0,12.75,5.72,12.75,12.75C198.583,100.97,192.863,106.689,185.833,106.689z"/>
	<path d="M301.973,131.189c20.54,0,37.25-16.71,37.25-37.25c0-20.54-16.71-37.25-37.25-37.25c-20.54,0-37.25,16.71-37.25,37.25
		C264.723,114.479,281.433,131.189,301.973,131.189z M301.973,65.189c15.853,0,28.75,12.897,28.75,28.75
		c0,15.853-12.897,28.75-28.75,28.75s-28.75-12.897-28.75-28.75C273.223,78.087,286.12,65.189,301.973,65.189z"/>
	<path d="M301.973,115.189c11.717,0,21.25-9.532,21.25-21.25s-9.533-21.25-21.25-21.25c-11.717,0-21.25,9.532-21.25,21.25
		S290.255,115.189,301.973,115.189z M301.973,81.189c7.03,0,12.75,5.72,12.75,12.75c0,7.03-5.72,12.75-12.75,12.75
		c-7.03,0-12.75-5.72-12.75-12.75C289.223,86.909,294.942,81.189,301.973,81.189z"/>
	<path d="M410.489,344.892V238.561c0-24.19-19.681-43.871-43.871-43.871h-58.646h-6h-16.879v-23.025h55.115
		c12.82,0,23.25-10.43,23.25-23.25v-17.23c20.424-0.137,37-16.788,37-37.244c0-20.456-16.576-37.107-37-37.244V48.42
		c0-12.82-10.43-23.25-23.25-23.25H325.52C302.252,2.908,269.761,0,243.903,0s-58.349,2.908-81.617,25.17h-14.689
		c-12.82,0-23.25,10.43-23.25,23.25v8.275c-20.424,0.137-37,16.788-37,37.244c0,20.456,16.576,37.107,37,37.244v17.23
		c0,12.82,10.43,23.25,23.25,23.25h55.115v23.025h-19.849h-3.03h-61.615c-24.19,0-43.871,19.681-43.871,43.871v106.331
		c-24.594,2.187-43.944,22.895-43.944,48.048c0,3.662,0.426,7.351,1.266,10.963c0.448,1.925,2.163,3.287,4.14,3.287h22.724
		c1.472,0,2.839-0.762,3.614-2.013c0.775-1.252,0.847-2.814,0.191-4.132c-1.262-2.535-1.902-5.262-1.902-8.105
		c0-10.046,8.173-18.219,18.219-18.219c10.046,0,18.219,8.173,18.219,18.219c0,2.844-0.64,5.57-1.902,8.105
		c-0.656,1.317-0.584,2.88,0.19,4.132c0.775,1.251,2.142,2.013,3.614,2.013h22.724c1.977,0,3.692-1.362,4.14-3.287
		c0.84-3.612,1.266-7.301,1.266-10.963c0-25.191-19.409-45.922-44.056-48.057V238.561c0-19.504,15.867-35.371,35.371-35.371h43.657
		c-3.304,4.016-5.291,9.155-5.291,14.75v144.998c0,10.436,6.911,19.286,16.396,22.218c-1.17,2.053-1.848,4.42-1.848,6.946
		c0,3.824,1.537,7.291,4.019,9.832c-2.482,2.539-4.019,6.007-4.019,9.83c0,3.824,1.537,7.292,4.02,9.832
		c-2.482,2.54-4.02,6.008-4.02,9.832c0,3.824,1.537,7.291,4.019,9.832c-2.482,2.539-4.019,6.007-4.019,9.83
		c0,1.982,0.417,3.869,1.16,5.582H145.21c-7.765,0-14.082,6.317-14.082,14.082c0,7.765,6.317,14.082,14.082,14.082h75.673
		c7.765,0,14.082-6.317,14.082-14.082c0-3.824-1.537-7.292-4.02-9.832c2.482-2.54,4.02-6.008,4.02-9.832
		c0-3.823-1.537-7.291-4.019-9.83c2.482-2.541,4.019-6.008,4.019-9.832c0-3.824-1.537-7.292-4.02-9.832
		c2.482-2.54,4.02-6.008,4.02-9.832c0-3.823-1.537-7.291-4.019-9.83c2.482-2.541,4.019-6.008,4.019-9.832
		c0-2.113-0.482-4.113-1.32-5.914h14.378c-0.838,1.801-1.32,3.801-1.32,5.914c0,3.824,1.537,7.291,4.019,9.832
		c-2.482,2.539-4.019,6.007-4.019,9.83c0,3.824,1.537,7.292,4.02,9.832c-2.482,2.54-4.02,6.008-4.02,9.832
		c0,3.824,1.537,7.291,4.019,9.832c-2.482,2.539-4.019,6.007-4.019,9.83c0,3.824,1.537,7.292,4.02,9.832
		c-2.482,2.54-4.02,6.008-4.02,9.832c0,7.765,6.317,14.082,14.081,14.082h75.673c7.765,0,14.081-6.317,14.081-14.082
		c0-7.765-6.317-14.082-14.081-14.082h-27.081c0.743-1.713,1.16-3.6,1.16-5.582c0-3.823-1.537-7.291-4.019-9.83
		c2.482-2.541,4.019-6.008,4.019-9.832c0-3.824-1.537-7.292-4.02-9.832c2.482-2.54,4.02-6.008,4.02-9.832
		c0-3.823-1.537-7.291-4.019-9.83c2.482-2.541,4.019-6.008,4.019-9.832c0-2.127-0.488-4.137-1.336-5.947
		c12.252-0.641,22.022-10.809,22.022-23.217V217.939c0-5.595-1.987-10.734-5.292-14.75h40.687c19.504,0,35.371,15.867,35.371,35.371
		v106.322c-24.647,2.135-44.056,22.865-44.056,48.057c0,3.662,0.426,7.351,1.266,10.963c0.448,1.925,2.163,3.287,4.14,3.287h22.724
		c1.472,0,2.839-0.762,3.614-2.013c0.774-1.252,0.847-2.814,0.19-4.132c-1.262-2.535-1.902-5.262-1.902-8.105
		c0-10.046,8.173-18.219,18.219-18.219s18.219,8.173,18.219,18.219c0,2.844-0.64,5.57-1.902,8.105
		c-0.656,1.317-0.584,2.88,0.19,4.132c0.775,1.251,2.142,2.013,3.614,2.013h22.724c1.977,0,3.692-1.362,4.14-3.287
		c0.84-3.612,1.266-7.301,1.266-10.963C454.433,367.786,435.083,347.078,410.489,344.892z M391.959,93.939
		c0,15.769-12.762,28.608-28.5,28.744V65.195C379.197,65.331,391.959,78.171,391.959,93.939z M95.847,93.939
		c0-15.769,12.762-28.608,28.5-28.744v57.488C108.609,122.548,95.847,109.708,95.847,93.939z M118.403,392.94
		c0,1.914-0.142,3.838-0.422,5.75h-13.227c0.412-1.872,0.619-3.792,0.619-5.75c0-14.732-11.986-26.719-26.719-26.719
		s-26.719,11.986-26.719,26.719c0,1.958,0.207,3.878,0.619,5.75H39.325c-0.281-1.912-0.422-3.836-0.422-5.75
		c0-21.918,17.832-39.75,39.75-39.75C100.571,353.19,118.403,371.022,118.403,392.94z M243.903,8.5
		c31.295,0,52.54,5.068,68.451,16.67H175.452C191.362,13.568,212.608,8.5,243.903,8.5z M132.847,148.414V48.42
		c0-8.133,6.617-14.75,14.75-14.75h16.402h159.808h16.402c8.133,0,14.75,6.617,14.75,14.75v99.994c0,8.133-6.617,14.75-14.75,14.75
		h-59.365h-73.882h-59.365C139.463,163.164,132.847,156.547,132.847,148.414z M211.212,171.664h65.382v23.025h-65.382V171.664z
		 M220.883,397.684h-35.67c-3.078,0-5.581-2.504-5.581-5.582s2.504-5.582,5.581-5.582h35.67c3.078,0,5.582,2.504,5.582,5.582
		S223.961,397.684,220.883,397.684z M226.465,411.764c0,3.078-2.504,5.582-5.582,5.582h-35.67c-3.078,0-5.581-2.504-5.581-5.582
		c0-3.077,2.504-5.58,5.581-5.58h35.67C223.961,406.184,226.465,408.687,226.465,411.764z M226.465,431.428
		c0,3.078-2.504,5.582-5.582,5.582h-35.67c-3.078,0-5.581-2.504-5.581-5.582c0-3.078,2.504-5.582,5.581-5.582h35.67
		C223.961,425.846,226.465,428.35,226.465,431.428z M179.632,451.09c0-3.077,2.504-5.58,5.581-5.58h35.67
		c3.078,0,5.582,2.503,5.582,5.58c0,3.078-2.504,5.582-5.582,5.582h-35.67C182.136,456.672,179.632,454.168,179.632,451.09z
		 M220.883,476.336H145.21c-3.078,0-5.582-2.504-5.582-5.582c0-3.078,2.504-5.582,5.582-5.582h40.003h35.67
		c3.078,0,5.582,2.504,5.582,5.582C226.465,473.832,223.961,476.336,220.883,476.336z M296.455,397.684h-35.67
		c-3.078,0-5.581-2.504-5.581-5.582s2.504-5.582,5.581-5.582h35.67c3.078,0,5.582,2.504,5.582,5.582
		S299.532,397.684,296.455,397.684z M302.036,411.764c0,3.078-2.504,5.582-5.582,5.582h-35.67c-3.078,0-5.581-2.504-5.581-5.582
		c0-3.077,2.504-5.58,5.581-5.58h35.67C299.532,406.184,302.036,408.687,302.036,411.764z M302.036,431.428
		c0,3.078-2.504,5.582-5.582,5.582h-35.67c-3.078,0-5.581-2.504-5.581-5.582c0-3.078,2.504-5.582,5.581-5.582h35.67
		C299.532,425.846,302.036,428.35,302.036,431.428z M342.039,470.754c0,3.078-2.504,5.582-5.581,5.582h-75.673
		c-3.078,0-5.581-2.504-5.581-5.582c0-3.078,2.504-5.582,5.581-5.582h35.67h40.003C339.535,465.172,342.039,467.676,342.039,470.754
		z M260.785,456.672c-3.078,0-5.581-2.504-5.581-5.582c0-3.077,2.504-5.58,5.581-5.58h35.67c3.078,0,5.582,2.503,5.582,5.58
		c0,3.078-2.504,5.582-5.582,5.582H260.785z M322.723,217.939V325.17h-18.436c-2.347,0-4.25,1.902-4.25,4.25
		c0,2.348,1.903,4.25,4.25,4.25h18.436v8.5H276.62c-2.347,0-4.25,1.902-4.25,4.25c0,2.348,1.903,4.25,4.25,4.25h46.103v12.267
		c0,8.133-6.617,14.75-14.75,14.75h-128.14c-8.133,0-14.75-6.617-14.75-14.75V260.565c0.296,0.065,0.601,0.105,0.916,0.105h9.334
		c2.347,0,4.25-1.902,4.25-4.25c0-2.348-1.903-4.25-4.25-4.25h-9.334c-0.315,0-0.62,0.039-0.916,0.104V240.67h22.75
		c2.347,0,4.25-1.902,4.25-4.25c0-2.348-1.903-4.25-4.25-4.25h-22.75v-14.23c0-8.133,6.617-14.75,14.75-14.75h3.03h24.099h73.882
		h21.129h6C316.106,203.189,322.723,209.807,322.723,217.939z M445.511,398.69h-13.227c0.412-1.872,0.619-3.792,0.619-5.75
		c0-14.732-11.986-26.719-26.719-26.719s-26.719,11.986-26.719,26.719c0,1.958,0.207,3.878,0.619,5.75h-13.227
		c-0.281-1.912-0.422-3.836-0.422-5.75c0-21.918,17.832-39.75,39.75-39.75c21.918,0,39.75,17.832,39.75,39.75
		C445.933,394.853,445.792,396.777,445.511,398.69z"/>
	<path d="M243.903,249.857c9.615,0,17.438-7.822,17.438-17.438c0-9.615-7.823-17.438-17.438-17.438
		c-9.615,0-17.438,7.822-17.438,17.438C226.465,242.035,234.288,249.857,243.903,249.857z M243.903,223.482
		c4.928,0,8.938,4.01,8.938,8.938c0,4.928-4.01,8.938-8.938,8.938c-4.928,0-8.938-4.01-8.938-8.938
		C234.965,227.492,238.975,223.482,243.903,223.482z"/>
	<path d="M243.903,261.949c-11.574,0-20.991,9.416-20.991,20.99c0,11.574,9.417,20.99,20.991,20.99
		c11.574,0,20.991-9.416,20.991-20.99C264.894,271.365,255.477,261.949,243.903,261.949z M243.903,295.43
		c-6.887,0-12.491-5.603-12.491-12.49c0-6.887,5.604-12.49,12.491-12.49c6.887,0,12.491,5.603,12.491,12.49
		C256.394,289.826,250.79,295.43,243.903,295.43z"/>
	<path d="M220.465,137.898c0,2.348,1.903,4.25,4.25,4.25h35.929c2.347,0,4.25-1.902,4.25-4.25c0-2.348-1.903-4.25-4.25-4.25h-35.929
		C222.368,133.648,220.465,135.551,220.465,137.898z"/>
</g>
</svg>
